<svg width="94.667mm" height="108.04mm" version="1.1" viewBox="0 0 94.667 108.04" xmlns="http://www.w3.org/2000/svg">
 <g transform="translate(933.96 -135.59)">
  <path d="m-854.74 238.63h-61.978c-5.7818 0-10.469-4.6874-10.469-10.47v-61.978c0-5.7824 4.6871-10.47 10.469-10.47h61.978c5.7818 0 10.469 4.6871 10.469 10.47v61.978c0 5.7822-4.6872 10.47-10.469 10.47" style="fill:#8db7c6"/>
  <path d="m-856.49 153.93h-61.978c-5.7822 0-10.47 4.6871-10.47 10.469v61.978c0 5.7816 4.6874 10.469 10.47 10.469h61.978c5.7822 0 10.47-4.6874 10.47-10.469v-61.978c0-5.7818-4.6874-10.469-10.47-10.469" style="fill:#d5d4d8"/>
  <path d="m-856.49 151.31h-61.978c-5.7822 0-10.47 4.6872-10.47 10.47v61.978c0 5.7818 4.6874 10.469 10.47 10.469h61.978c5.7822 0 10.47-4.6876 10.47-10.469v-61.978c0-5.7824-4.6874-10.47-10.47-10.47" style="fill:#ffffff"/>
  <path d="m-846.02 161.78c0-5.7824-4.6874-10.47-10.47-10.47h-61.978c-5.7822 0-10.47 4.6872-10.47 10.47v8.3751h82.917v-8.3751" style="fill:#2158c2;stroke-width:.056047;stroke:#2158c2"/>
  <path d="m-928.94 167.09h82.917v3.071h-82.917z" style="fill:#2124b8"/>
  <path d="m-910.28 156.31c0 1.8208-1.4756 3.2967-3.2967 3.2967-1.8202 0-3.2967-1.4758-3.2967-3.2967 0-1.8205 1.4765-3.2967 3.2967-3.2967 1.8211 0 3.2967 1.4763 3.2967 3.2967" style="fill:#212492"/>
  <path d="m-913.58 140.59c-1.0323 0-1.8776.84507-1.8776 1.878v14.135c0 1.0329.8453 1.878 1.8776 1.878 1.0329 0 1.8782-.84508 1.8782-1.878v-14.135c0-1.033-.8453-1.878-1.8782-1.878" style="fill:#ededed"/>
  <path d="m-858.09 156.31c0 1.8208-1.4765 3.2967-3.2967 3.2967-1.8211 0-3.2967-1.4758-3.2967-3.2967 0-1.8205 1.4756-3.2967 3.2967-3.2967 1.8202 0 3.2967 1.4763 3.2967 3.2967" style="fill:#212492"/>
  <path d="m-861.39 140.59c-1.0329 0-1.8782.84507-1.8782 1.878v14.135c0 1.0329.8453 1.878 1.8782 1.878 1.0329 0 1.8776-.84508 1.8776-1.878v-14.135c0-1.033-.84468-1.878-1.8776-1.878" style="fill:#ededed"/>
  <path d="m-885.25 175.67h7.4328v7.433h-7.4328z" style="fill:#d9dadd"/>
  <path d="m-873.35 175.67h7.433v7.433h-7.433z" style="fill:#d9dadd"/>
  <path d="m-861.45 175.67h7.4334v7.433h-7.4334z" style="fill:#d9dadd"/>
  <path d="m-920.95 186.46h7.4334v7.433h-7.4334z" style="fill:#d9dadd"/>
  <path d="m-909.05 186.46h7.433v7.433h-7.433z" style="fill:#d9dadd"/>
  <path d="m-897.15 186.46h7.4334v7.433h-7.4334z" style="fill:#d9dadd"/>
  <path d="m-885.25 186.46h7.4328v7.433h-7.4328z" style="fill:#d9dadd"/>
  <path d="m-873.35 186.46h7.433v7.433h-7.433z" style="fill:#d9dadd"/>
  <path d="m-861.45 186.46h7.4334v7.433h-7.4334z" style="fill:#d9dadd"/>
  <path d="m-873.35 197.24h7.433v7.433h-7.433z" style="fill:#d9dadd"/>
  <path d="m-861.45 197.24h7.4334v7.433h-7.4334z" style="fill:#d9dadd"/>
  <path d="m-920.95 208.02h7.4334v7.433h-7.4334z" style="fill:#d9dadd"/>
  <path d="m-909.05 208.02h7.433v7.433h-7.433z" style="fill:#d9dadd"/>
  <path d="m-897.15 208.02h7.4334v7.433h-7.4334z" style="fill:#d9dadd"/>
  <path d="m-885.25 208.02h7.4328v7.433h-7.4328z" style="fill:#d9dadd"/>
  <path d="m-873.35 208.02h7.433v7.433h-7.433z" style="fill:#d9dadd"/>
  <path d="m-861.45 208.02h7.4334v7.433h-7.4334z" style="fill:#d9dadd"/>
  <path d="m-920.95 218.81h7.4334v7.4334h-7.4334z" style="fill:#d9dadd"/>
  <path d="m-909.05 218.81h7.433v7.4334h-7.433z" style="fill:#d9dadd"/>
  <path d="m-897.15 218.81h7.4334v7.4334h-7.4334z" style="fill:#d9dadd"/>
  <path d="m-885.25 218.81h7.4328v7.4334h-7.4328z" style="fill:#d9dadd"/>
  <path d="m-873.35 218.81h7.433v7.4334h-7.433z" style="fill:#d9dadd"/>
  <g transform="matrix(.15887 0 0 .15887 -780.23 118.48)" style="stroke:#2158c2">
   <circle cx="-562.54" cy="587.45" r="23.393" style="fill:#2158cf;stroke-linejoin:round;stroke-width:.353;stroke:#2158c2"/>
  </g>
  <path d="m-868.2 206.83c-.35753-.0135-.7144-.0315-1.0685-.0278-.35349.002-.70473.0265-1.0434.0906-.67632.13132-1.3036.43721-1.8886.80483-.5825.36473-1.0983.81203-1.3969 1.3715-.077.1386-.1397.2865-.1943.43634-.054.15014-.098.30424-.129.46223-.031.1572-.054.31664-.064.47658-.01.16088-.011.32168 0 .4817.02.32024.078.64192.1707.95409.046.15655.099.31151.1594.46446.061.15208.1273.30279.202.45069.1476.29551.3222.58193.5115.85436.1898.27179.3989.5259.6273.75514.2293.22932.47496.43266.7414.60566.26732.17292.55662.31887.85971.44052.30279.12115.61942.22224.94219.29861.32082.0763.64221.12901.95719.14364.31462.0149.62275-.005.91263-.073l.10759-.0281c.0361-.009.0702-.0223.10564-.0332.0707-.02.1386-.051.20789-.0772.0338-.0143.0673-.0315.1011-.0467l.0507-.0237.0496-.0267.0986-.0536.0966-.0591c.51235-.32139.94054-.81038 1.2275-1.3684.2924-.5634.45465-1.2059.52114-1.8679.0327-.33099.0408-.66897.0296-1.0059-.0105-.33235-.0448-.65548-.13182-.94479-.0431-.14422-.0997-.27964-.1696-.40223-.0707-.12389-.15265-.23155-.25772-.33236-.10535-.10167-.22989-.19462-.36647-.28339-.0681-.0439-.14003-.0873-.21265-.12843-.0363-.0208-.0724-.0425-.10903-.0628l-.11098-.0591c-.29659-.1572-.61041-.28202-.93181-.3837-.32139-.10225-.65433-.16787-.99094-.2053-.33661-.0389-.67805-.036-1.0169-.002-.33914.0356-.67488.11466-1.0025.22506-.0411.013-.0808.0296-.12172.0448-.04.0157-.0814.0287-.12078.0467-.0792.0352-.16031.0671-.23775.10672-.0389.0186-.0786.0375-.11747.057l-.11494.0628-.0575.0309-.056.0338-.11213.0684c-.29601.18764-.56953.41464-.81683.67351.1994-.29687.4444-.56671.72136-.80309.27942-.23292.58813-.4349.91998-.5957.33178-.15944.68448-.28195 1.049-.36113.0915-.018.1828-.0392.27546-.0507.0462-.006.0921-.0136.1386-.0201l.13939-.0146.0699-.007.0699-.005.14025-.008c.0468-.001.0932-.002.14033-.003.0467-.00079.0937-.003.14054-.00079.0935.002.18756.004.2808.0115.0468.004.0938.006.14062.0108l.13968.0152c.047.004.0932.0115.13975.0188l.13938.0208.1386.026c.0462.009.0924.0172.13802.0281.36733.0814.72759.19751 1.0741.34822l.1298.0572c.0428.0194.0854.0402.12793.0605.0856.0403.16953.0842.25433.13131.16932.0943.33971.20393.50109.33942.16175.13492.31073.30308.42848.48163.11913.17977.20927.37216.27914.56534.13889.38817.19658.77887.22931 1.1561.009.0952.0123.18755.018.28195.003.0937.008.18756.008.28195.003.18813-.002.37714-.0121.56671-.0107.18958-.0301.38003-.0555.5704-.0146.0947-.0275.18958-.0473.28426l-.0279.14198-.0327.14191c-.0104.0471-.0228.0938-.0358.14084-.013.0468-.0248.0944-.0386.14061-.029.0937-.056.18669-.0898.27914-.0637.18504-.13996.36704-.22534.54559-.0854.18027-.1859.35269-.29349.52143l-.0848.12338-.0428.0614-.0453.0597c-.0304.0397-.0603.08-.0912.1192l-.0966.11516c-.0319.0397-.0662.0758-.10031.11328-.0346.0369-.0676.0744-.1034.10954-.0721.0707-.14307.14285-.22023.20847-.0746.0693-.15525.13124-.23493.19463-.0397.0318-.0826.0606-.12396.0901-.0417.0304-.0828.06-.12706.0865l-.13038.0823c-.0448.0259-.0901.0498-.13549.0752l-.0679.0366-.0705.0337c-.0467.0217-.0932.0448-.14083.0656-.0969.0384-.1921.0809-.29241.11126-.0495.0158-.0989.0338-.14898.0477-.0504.0135-.10059.0273-.151.0402-.40389.0966-.81405.12396-1.211.10536-.39747-.0203-.78196-.0873-1.1535-.17747-.36986-.0915-.73466-.20702-1.0912-.35629-.35601-.14985-.70336-.33156-1.0304-.55237-.3278-.22059-.6301-.47946-.8951-.76365-.2668-.28339-.5026-.58986-.7116-.90844-.2095-.31801-.3912-.6521-.5486-1.0002-.079-.17378-.15-.35269-.2133-.53347-.063-.182-.12-.36646-.1634-.55467-.09-.37634-.14-.76444-.1433-1.1566 0-.39235.049-.78391.1518-1.1625.05-.189.116-.3749.1949-.55518.078-.18027.1707-.3555.2791-.52085.1076-.16506.2279-.32363.3611-.46785.1327-.14423.2755-.27604.4254-.39575.2994-.24027.622-.43439.9507-.60139.3287-.16593.66641-.31297 1.0191-.42704.35211-.11242.71771-.19239 1.0873-.21857.3687-.0265.7338-.003 1.091.042.35774.0462.70899.11379 1.0589.18727" style="fill:#f74344"/>
  <g>
   <g transform="matrix(.15887 0 0 .15887 -822.4 109.1)" style="stroke:#2158c2">
    <circle cx="-596.92" cy="578.16" r="23.393" style="fill:#2158cf;stroke-linejoin:round;stroke-width:.353;stroke:#2158c2"/>
   </g>
   <text x="-919.34399" y="203.28889" style="fill:#ffffff;font-family:'Albert Sans';font-size:6.6668px;letter-spacing:.48601px;line-height:1.25;stroke-width:.066668;word-spacing:0px" xml:space="preserve"><tspan x="-919.34399" y="203.28889" style="fill:#ffffff;font-family:'Albert Sans';font-size:6.6668px;font-weight:800;stroke-width:.066668">F</tspan></text>
  </g>
  <g>
   <g transform="matrix(.15887 0 0 .15887 -810.45 109.09)" style="stroke:#2158c2">
    <circle cx="-596.92" cy="578.16" r="23.393" style="fill:#2158cf;stroke-linejoin:round;stroke-width:.353;stroke:#2158c2"/>
   </g>
   <text x="-906.21497" y="203.27332" style="fill:#ffffff;font-family:'Albert Sans';font-size:6.6668px;letter-spacing:.48601px;line-height:1.25;stroke-width:.066668;word-spacing:0px" xml:space="preserve"><tspan x="-906.21497" y="203.27332" style="fill:#ffffff;font-family:'Albert Sans';font-size:6.6668px;font-weight:800;stroke-width:.066668">I</tspan></text>
  </g>
  <g>
   <circle transform="matrix(.15887 0 0 .15887 -798.6 109.1)" cx="-596.92" cy="578.16" r="23.393" style="fill:#2158cf;stroke-linejoin:round;stroke-width:.353;stroke:#2158c2"/>
   <text x="-895.71362" y="203.28889" style="fill:#ffffff;font-family:'Albert Sans';font-size:6.6668px;letter-spacing:.48601px;line-height:1.25;stroke-width:.066668;word-spacing:0px" xml:space="preserve"><tspan x="-895.71362" y="203.28889" style="fill:#ffffff;font-family:'Albert Sans';font-size:6.6668px;font-weight:800;stroke-width:.066668">P</tspan></text>
  </g>
  <g>
   <circle transform="matrix(.15887 0 0 .15887 -786.7 109.1)" cx="-596.92" cy="578.16" r="23.393" style="fill:#2158cf;stroke-linejoin:round;stroke-width:.353;stroke:#2158c2"/>
   <text x="-883.90198" y="203.26556" style="fill:#ffffff;font-family:'Albert Sans';font-size:6.6668px;letter-spacing:.48601px;line-height:1.25;stroke-width:.066668;word-spacing:0px" xml:space="preserve"><tspan x="-883.90198" y="203.26556" style="fill:#ffffff;font-family:'Albert Sans';font-size:6.6668px;font-weight:800;stroke-width:.066668">U</tspan></text>
  </g>
 </g>
</svg>
